PathFileType	4	(X/Y/Z)	C:/Users/beibeiliu/ov580/test_trc/capture2\sequence.36_training_dense_right.trc
DataRate	CameraRate	NumFrames	NumMarkers	Units	OrigDataRate	OrigDataStartFrame	OrigNumFrames
120	120	18	19	mm	120	141	374
Frame#	Time	ThumbCMC			ThumbMCP			ThumbIP			ThumbTip			IndexMCP			IndexPIP			IndexTip			MiddleMCP			MiddlePIP			MiddleTip			RingMCP			RingPIP			RingTip			PinkyMCP			PinkyPIP			PinkyTip			BackHand1			BackHand2			BackHand3	
		X0	Y0	Z0	X1	Y1	Z1	X2	Y2	Z2	X3	Y3	Z3	X4	Y4	Z4	X5	Y5	Z5	X6	Y6	Z6	X7	Y7	Z7	X8	Y8	Z8	X9	Y9	Z9	X10	Y10	Z10	X11	Y11	Z11	X12	Y12	Z12	X13	Y13	Z13	X14	Y14	Z14	X15	Y15	Z15	X16	Y16	Z16	X17	Y17	Z17	X18	Y18	Z18	
140	1.16667	161.584	39.4202	32.6623	151.84	56.4537	8.40407	148.881	61.0785	-15.997	145.365	53.1781	-41.9108	169.579	22.3661	-36.2568	141.444	30.1933	-53.9105	121.393	43.4772	-33.253	160.435	4.0333	-39.91	130.777	18.1111	-53.6663	112.523	25.069	-23.2829	146.04	-15.0403	-37.6734	121.688	2.64566	-46.3578	112.502	15.8163	-13.4812	137.849	-27.0427	-22.7398	117.508	-11.8516	-37.8479	112.627	11.6462	-9.89148	163.185	-23.1446	18.3519	164.474	-18.9034	44.9892	180.31	10.191	29.2503	
141	1.175	162.657	42.9215	36.3684	154.992	52.4068	6.51705	156.697	60.6484	-19.6299	151.184	51.1128	-41.1155	169.283	24.8104	-40.2898	142.964	29.6327	-53.843	122.636	39.0172	-29.6372	158.658	2.46365	-40.2653	132.386	19.0805	-53.4405	113.937	26.8404	-23.5503	147.658	-9.17848	-39.1961	119.676	3.0155	-43.9104	113.659	17.8121	-17.0702	137.086	-28.8435	-24.0157	115.278	-8.71605	-35.1115	110.776	7.54688	-9.57972	168.099	-19.4241	14.6727	165.873	-21.3759	47.3507	179.108	6.02436	28.7891	
142	1.18333	164.085	41.9066	31.9359	157.77	55.1023	8.0572	159.818	58.5105	-20.0153	155.596	50.9894	-40.5868	169.181	21.8566	-38.8875	145.136	31.9492	-54.0469	123.18	40.8111	-30.4491	158.52	4.17979	-42.7028	131.251	14.5412	-52.4548	115.957	26.44	-17.1577	146.582	-10.9506	-40.5295	123.678	2.95652	-45.9061	115.299	16.9407	-11.335	138.381	-26.7933	-26.1876	117.907	-9.43781	-36.2326	110.161	8.21771	-6.54813	167.528	-19.233	18.406	167.102	-22.5434	43.5264	182.689	9.37352	28.2673	
143	1.19167	163.392	38.7903	32.1867	157.294	53.0987	9.41355	160.357	58.1645	-20.6043	158.952	48.1859	-44.7331	171.052	23.1545	-36.3592	143.734	33.2743	-53.7858	122.776	37.3689	-29.1292	160.123	3.67806	-40.4279	130.991	14.6715	-51.8143	117.31	27.228	-17.0253	149.771	-11.9363	-35.3389	118.503	2.97896	-41.4179	114.932	16.2405	-12.7635	139.748	-27.944	-23.616	116.621	-11.5127	-33.9858	115.018	10.6504	-8.37287	171.385	-19.6538	13.8343	166.843	-17.8031	49.1221	179.724	9.20491	28.2174	
144	1.2	161.71	39.7426	37.3873	156.686	53.3281	8.21851	159.108	54.8192	-18.6825	157.795	49.0435	-42.8358	170.517	22.5118	-39.6115	142.661	28.8168	-53.9905	123.177	40.3216	-32.782	161.521	6.01018	-38.8687	130.785	15.9493	-50.0017	117.254	26.3691	-18.8676	148.395	-11.9065	-37.9638	122.106	-0.655459	-42.9552	115.346	14.3389	-9.49602	138.983	-28.9625	-25.355	116.19	-7.22841	-32.3512	114.608	7.96603	-8.6791	168.808	-19.9851	13.9678	168.275	-17.7677	49.9194	182.735	8.00172	27.9655	
145	1.20833	161.871	39.0058	35.1538	156.98	49.6119	5.74143	158.134	55.4491	-19.9211	157.234	46.2874	-44.0227	168.829	19.1264	-39.3747	145.575	27.81	-55.449	122.39	39.0511	-32.3676	161.761	2.82509	-39.6356	131.903	14.7372	-51.9478	116.873	23.632	-18.5084	149.586	-12.3329	-37.3728	120.944	2.07463	-42.1393	116.129	12.5381	-9.54762	140.571	-27.4243	-24.2462	117.421	-10.4751	-32.9221	112.814	5.08436	-3.50696	168.077	-23.9399	18.0196	167.872	-19.1605	48.0289	181.422	5.49024	29.3992	
146	1.21667	162.875	38.5613	31.4768	155.09	48.3575	8.12572	157.916	52.4046	-21.6214	154.467	45.2354	-42.3363	169.765	21.4231	-41.2726	146.987	28.7371	-55.3968	121.215	35.8175	-29.1335	160.288	2.55877	-39.763	130.276	13.6772	-50.5874	118.826	23.6553	-14.5116	148.319	-14.2405	-34.9317	120.72	1.0409	-40.62	116.354	13.0675	-10.6499	138.267	-28.165	-27.4876	116.357	-8.61279	-31.4478	118.755	7.59978	-4.34956	171.621	-21.1579	14.8019	166.218	-19.6694	46.2915	179.873	7.53685	30.9474	
147	1.225	162.589	40.1752	32.2594	153.437	48.9017	7.71639	155.082	52.1089	-19.6203	152.86	43.8059	-42.5472	168.089	17.7927	-37.4115	142.899	26.2336	-54.1867	120.879	36.2305	-28.4995	158.127	-0.507717	-42.0617	128.561	15.1353	-49.788	120.674	26.5627	-15.4689	148.092	-13.0749	-35.5204	120.917	-0.739381	-41.4812	116.437	13.2104	-10.0256	140.669	-26.8803	-22.9291	116.323	-12.4209	-31.5375	113.419	5.64518	-4.4486	170.255	-21.4751	17.7273	167.513	-18.1569	44.8916	179.354	6.17483	31.4275	
148	1.23333	160.855	38.5779	33.4248	151.34	50.2166	5.67783	152.384	53.9115	-22.6158	149.003	47.9453	-43.884	168.07	19.5818	-39.4868	139.693	26.5911	-52.7416	119.428	38.873	-29.4095	158.846	1.85393	-41.5312	130.885	10.9694	-51.8063	119.098	22.7429	-15.5416	147.808	-12.1074	-37.0469	119.926	-1.71875	-41.7154	117.212	13.9541	-11.1946	139.346	-28.4729	-26.3948	113.571	-12.4131	-30.594	116.517	5.63236	-3.20695	168.31	-22.4276	16.0841	168.36	-18.3084	47.6543	181.102	5.3618	31.5651	
149	1.24167	159.827	41.8146	34.304	147.233	49.1395	10.3993	145.988	56.152	-21.3326	141.715	46.4732	-43.0184	167.072	16.0656	-36.2015	143.151	22.8565	-52.9654	118.317	33.5392	-34.0802	159.791	1.71017	-38.4888	131.188	12.5818	-50.5542	117.623	22.8206	-15.6703	147.844	-12.059	-34.9368	121.781	-1.5561	-41.4601	116.177	13.8229	-7.80488	138.65	-27.7887	-25.3785	115.012	-12.3775	-32.1146	114.814	6.2147	-4.80469	169.631	-21.2709	18.4605	168.009	-20.4984	48.3403	181.642	9.62368	29.7935	
150	1.25	159.625	40.6769	34.8658	144.98	49.0231	6.72399	140.724	54.7921	-17.9788	137.03	51.5768	-43.8613	168.367	18.6556	-35.927	145.319	25.6849	-55.7388	117.53	39.3431	-34.551	156.93	0.0745418	-40.0443	127.546	12.0825	-48.7178	117.061	23.7453	-14.861	146.775	-14.5355	-32.9752	118.278	1.06272	-40.1487	114.438	15.301	-12.6033	139.631	-27.4259	-21.8512	116.365	-15.711	-33.8795	111.03	6.081	-6.82524	169.925	-21.0464	16.6679	168.85	-18.5111	46.6814	181.032	7.82439	29.1349	
151	1.25833	160.303	41.051	32.1602	142.136	51.1079	8.85605	138.187	52.2546	-19.158	131.548	49.8217	-41.5549	168.896	18.9798	-34.7861	144.955	21.8163	-53.9331	115.705	36.2845	-37.2012	157.375	-1.62355	-36.5765	129.649	11.474	-49.9994	116.558	26.8345	-19.618	143.154	-17.457	-36.0626	116.981	-0.629292	-39.8969	112.556	13.1039	-12.6468	136.801	-32.7114	-20.6214	114.579	-14.1096	-32.7339	111.55	5.74488	-6.15673	168.294	-20.9351	18.8838	165.978	-21.8747	52.1671	180.514	7.60559	30.6064	
152	1.26667	158.739	37.5469	34.3875	141.079	50.3773	11.2886	134.627	57.6749	-20.0415	129.298	53.7356	-40.6369	167.764	15.161	-33.4519	145.282	22.9644	-54.4797	117.657	35.094	-40.748	155.767	-1.98187	-40.7626	130.375	13.4322	-49.0651	115.184	23.8282	-17.3953	145.284	-17.1257	-31.694	122.436	-1.65828	-42.0693	113.826	15.7194	-14.5691	137.487	-29.3613	-19.4356	112.611	-13.6465	-30.9744	110.535	5.94548	-9.9465	166.55	-26.3265	20.8624	165.869	-17.0956	52.5613	180.216	8.44463	33.4382	
153	1.275	159.882	39.9075	37.0599	141.945	51.8584	10.6732	135.307	58.4794	-18.9285	127.158	56.9362	-39.3193	169.947	19.648	-36.3448	146.122	24.7631	-55.1522	118.325	35.3928	-41.6925	160.351	0.747258	-36.1093	128.99	13.2074	-48.4368	117.814	29.2382	-17.6405	146.208	-14.0709	-35.1763	120.35	0.724239	-40.1832	112.739	15.739	-11.8604	137.961	-29.0566	-21.0029	115.317	-12.3497	-31.8324	114.622	9.68357	-9.59367	166.788	-24.0762	19.2225	167.709	-20.5839	48.3042	179.998	6.89441	33.8926	
154	1.28333	159.5	38.6188	36.1158	142.77	51.5439	9.97307	135.163	57.6597	-16.4396	128.545	56.2115	-40.325	167.933	17.8612	-37.8813	145.012	27.9099	-55.2755	118.803	37.1365	-38.4985	159.012	0.131801	-38.4602	132.315	11.9802	-50.6912	117.552	28.827	-18.6346	146.727	-15.4581	-32.236	119.395	-2.46165	-40.5088	114.145	17.956	-13.339	137.099	-29.9059	-19.9777	116.288	-14.6021	-32.9184	109.785	8.44666	-10.9927	166.29	-20.5785	20.7221	165.149	-21.5849	50.2689	182.673	8.26709	31.8585	
155	1.29167	160.261	38.0614	36.8919	145.136	52.8534	10.0684	138.821	60.0012	-17.7102	132.162	54.0352	-39.0048	168.804	17.3347	-36.8513	143.375	26.5358	-52.9315	121.3	38.5437	-39.9087	160.574	2.5995	-40.9369	129.751	12.5753	-50.6658	117.332	28.1225	-18.9192	145.581	-17.1648	-31.3987	119.108	-0.352153	-41.2337	115.149	17.4038	-11.3	138.266	-30.1882	-19.6448	115.102	-12.2229	-32.6754	112.665	10.2769	-9.53385	166.274	-24.7885	17.0539	164.231	-21.1111	49.4861	180.025	6.66681	32.7133	
156	1.3	162.575	40.2347	35.279	147.614	52.055	13.007	143.197	58.7737	-14.4512	138.823	57.2306	-37.6984	170.057	19.499	-36.7328	143.618	28.6117	-53.515	122.206	39.2153	-36.0154	159.448	0.0506174	-39.8454	136.294	14.2309	-53.1139	117.026	25.705	-18.7691	148.314	-13.4286	-36.6938	122.151	3.30933	-41.9824	117.157	18.026	-13.4198	137.856	-29.6266	-20.8315	119.517	-11.7888	-34.442	113.127	10.4661	-8.3754	166.498	-22.7483	16.4818	165.389	-18.7423	49.3348	182.44	4.84151	31.481	
157	1.30833	163.21	42.075	38.2356	153.763	52.7652	7.67266	151.523	59.1285	-18.7979	146.356	52.3389	-41.0566	170.719	18.8367	-33.1902	147.399	30.967	-53.5883	123.168	41.9227	-31.3703	160.983	3.40632	-41.8865	132.074	14.2871	-50.4497	117.117	25.8302	-18.7767	147.78	-16.5828	-33.9046	124.883	0.263073	-44.8898	114.114	15.3431	-14.7951	139.138	-29.6479	-21.7515	120.1	-11.6214	-35.0299	112.591	8.03951	-11.2108	168.002	-22.3932	21.8424	168.758	-18.6222	50.5272	182.756	9.34578	31.5039	
